#!OML:ASF C:\ViconDB\ViconDB\414\Spring2016\041811\Spring2016.ASF
:FULLY-SPECIFIED
:DEGREES
151
root 11.1164 17.9521 0.33816 -178.903 -6.88523 -175.899
lowerback -1.58206 -0.21963 1.97555
upperback -0.284951 -0.391714 1.91631
thorax 0.595939 -0.216142 0.846798
lowerneck -11.1465 -2.97485 -11.8271
upperneck 23.8541 -7.4555 15.6888
head 10.4303 -3.54048 6.67091
rclavicle -4.94244e-015 6.55989e-015
rhumerus -83.333 30.5332 -113.098
rradius 89.1777
rwrist 30.8918
rhand -43.5534 1.92917
rfingers 7.12502
rthumb -16.3913 -27.3982
lclavicle -4.94244e-015 6.55989e-015
lhumerus -86.1424 -39.7643 122.462
lradius 71.2948
lwrist -29.4472
lhand -48.7152 1.67094
lfingers 7.12502
lthumb -21.3555 30.5142
rfemur 170.571 49.9329 -150.887
rtibia 37.9188
rfoot -72.6265 -54.0248
rtoes -23.7215
lfemur -14.3634 5.85875 -7.93535
ltibia 63.3272
lfoot -7.80011 2.03408
ltoes -12.723
152
root 11.1402 17.965 0.208812 -179.005 -6.58107 -175.931
lowerback -1.43715 -0.0544051 1.61642
upperback -0.155418 -0.151906 1.74694
thorax 0.647471 -0.091553 0.879426
lowerneck -11.0922 -3.067 -11.8962
upperneck 23.5837 -7.69962 16.2183
head 10.3891 -3.61793 6.84312
rclavicle 1.76293e-014 -1.05356e-014
rhumerus -83.3704 30.7481 -113.392
rradius 88.6227
rwrist 30.8797
rhand -43.7637 1.9116
rfingers 7.12502
rthumb -16.5937 -27.399
lclavicle 1.76293e-014 -1.05356e-014
lhumerus -85.9007 -39.8477 121.922
lradius 71.6733
lwrist -29.9134
lhand -48.6409 1.46643
lfingers 7.12502
lthumb -21.2841 30.3177
rfemur 170.044 52.0126 -150.857
rtibia 37.9115
rfoot -75.6593 -53.3248
rtoes -22.4735
lfemur -16.055 6.02922 -8.07963
ltibia 63.4435
lfoot -9.37706 3.01219
ltoes -12.7367
153
root 11.166 17.9704 0.0902457 -179.146 -6.36235 -175.831
lowerback -1.17173 0.0825437 1.42881
upperback -0.00907845 0.0481806 1.5559
thorax 0.64765 0.0125171 0.792557
lowerneck -11.038 -3.19607 -11.9534
upperneck 23.2362 -8.01434 16.8345
head 10.339 -3.72213 7.03368
rclavicle 1.82245e-015 -1.75924e-014
rhumerus -83.576 31.148 -114.009
rradius 88.1829
rwrist 30.533
rhand -44.1594 1.21606
rfingers 7.12502
rthumb -16.9746 -28.0622
lclavicle 1.82245e-015 -1.75924e-014
lhumerus -85.6655 -40.0658 121.324
lradius 72.1944
lwrist -29.8347
lhand -48.5057 0.637463
lfingers 7.12502
lthumb -21.1543 29.5033
rfemur 169.462 53.9706 -150.744
rtibia 37.9722
rfoot -78.399 -52.634
rtoes -22.1506
lfemur -17.7815 6.23835 -8.01414
ltibia 63.3184
lfoot -10.6404 3.6412
ltoes -13.4981
154
root 11.1954 17.976 -0.0340859 -179.331 -6.08615 -175.743
lowerback -1.04689 0.240688 0.974824
upperback 0.235253 0.267698 1.53681
thorax 0.824898 0.122953 1.03136
lowerneck -11.0612 -3.30441 -12.2038
upperneck 22.8907 -8.2208 17.4361
head 10.2962 -3.78512 7.27026
rclavicle 4.65436e-015 -2.60408e-014
rhumerus -83.502 31.4255 -114.142
rradius 87.6045
rwrist 30.3709
rhand -44.3741 1.46197
rfingers 7.12502
rthumb -17.1813 -27.7984
lclavicle 4.65436e-015 -2.60408e-014
lhumerus -85.1279 -40.094 120.646
lradius 72.6369
lwrist -30.6356
lhand -48.3418 0.479251
lfingers 7.12502
lthumb -20.9968 29.3627
rfemur 168.655 55.7488 -150.867
rtibia 38.0607
rfoot -80.8421 -51.8862
rtoes -21.4357
lfemur -19.2722 6.21032 -8.04474
ltibia 62.8992
lfoot -11.7771 4.29321
ltoes -13.5664
155
root 11.2203 17.9791 -0.15639 -179.483 -5.84449 -175.58
lowerback -0.767669 0.397146 0.837841
upperback 0.351411 0.4879 1.37485
thorax 0.78504 0.235027 0.944493
lowerneck -11.053 -3.37475 -12.2921
upperneck 22.6535 -8.47205 18.0712
head 10.2918 -3.86723 7.48848
rclavicle -4.53478e-016 -1.41137e-014
rhumerus -83.8006 31.8402 -114.714
rradius 87.226
rwrist 30.0868
rhand -44.7632 0.919747
rfingers 7.12502
rthumb -17.5557 -28.3076
lclavicle -4.53478e-016 -1.41137e-014
lhumerus -84.8578 -40.2521 120.1
lradius 73.1348
lwrist -30.7837
lhand -47.9055 0.223514
lfingers 7.12502
lthumb -20.5776 29.1529
rfemur 167.889 57.7056 -150.898
rtibia 38.1779
rfoot -83.4312 -51.1881
rtoes -20.4735
lfemur -20.8316 6.17652 -7.99898
ltibia 62.2593
lfoot -12.7495 4.91736
ltoes -13.7809
156
root 11.2484 17.9746 -0.277827 -179.599 -5.68394 -175.4
lowerback -0.476277 0.542928 0.584732
upperback 0.414764 0.691465 1.31157
thorax 0.682141 0.336783 1.02178
lowerneck -10.8963 -3.47201 -12.571
upperneck 22.2964 -8.72901 18.7801
head 10.2305 -3.9703 7.76677
rclavicle -1.26539e-014 -1.98785e-016
rhumerus -83.9423 31.8861 -115.037
rradius 86.5378
rwrist 30.6358
rhand -45.5049 -0.240652
rfingers 7.12502
rthumb -18.2694 -29.4027
lclavicle -1.26539e-014 -1.98785e-016
lhumerus -84.6911 -40.2785 119.707
lradius 73.7537
lwrist -30.844
lhand -47.4106 -0.232317
lfingers 7.12502
lthumb -20.102 28.7477
rfemur 167.135 59.8622 -150.893
rtibia 38.3309
rfoot -86.1431 -50.5375
rtoes -19.1448
lfemur -22.3752 6.07034 -7.91058
ltibia 61.3883
lfoot -13.6864 5.43556
ltoes -13.815
157
root 11.2727 17.9695 -0.404747 -179.713 -5.45344 -175.341
lowerback -0.293353 0.689616 0.238682
upperback 0.525734 0.895963 1.14775
thorax 0.687636 0.439546 1.04856
lowerneck -10.8176 -3.51793 -12.7809
upperneck 21.9921 -8.95959 19.558
head 10.2033 -4.05345 8.06651
rclavicle 1.03368e-014 1.19271e-015
rhumerus -84.1261 32.1064 -115.399
rradius 86.241
rwrist 29.956
rhand -45.5126 0.539485
rfingers 7.12502
rthumb -18.2768 -28.6219
lclavicle 1.03368e-014 1.19271e-015
lhumerus -84.4875 -40.4652 119.243
lradius 74.2096
lwrist -30.9459
lhand -47.124 -0.77472
lfingers 7.12502
lthumb -19.8265 28.234
rfemur 166.206 62.124 -151.206
rtibia 38.5076
rfoot -89.0633 -49.9443
rtoes -17.8766
lfemur -23.7342 5.76005 -8.00588
ltibia 60.2732
lfoot -14.5847 5.98232
ltoes -13.7661
158
root 11.3011 17.9596 -0.53101 -179.888 -5.387 -175.097
lowerback 0.0218625 0.802817 0.0262085
upperback 0.577092 1.05188 1.06358
thorax 0.558681 0.517477 1.07832
lowerneck -10.6143 -3.59277 -12.6715
upperneck 21.6903 -9.18708 19.9223
head 10.117 -4.1456 8.14276
rclavicle -1.43373e-014 -2.38542e-015
rhumerus -84.3561 32.3141 -115.787
rradius 85.8359
rwrist 29.7309
rhand -45.8273 0.180236
rfingers 7.12502
rthumb -18.5796 -28.9525
lclavicle -1.43373e-014 -2.38542e-015
lhumerus -84.4442 -40.5736 118.939
lradius 74.7275
lwrist -31.2069
lhand -46.765 -0.90838
lfingers 7.12502
lthumb -19.4814 28.1357
rfemur 165.077 64.4426 -151.538
rtibia 38.6805
rfoot -91.7438 -49.2971
rtoes -16.742
lfemur -25.0558 5.34801 -7.83701
ltibia 59.0015
lfoot -15.5416 6.32203
ltoes -13.6362
159
root 11.3263 17.9493 -0.658131 -179.978 -5.34108 -174.953
lowerback 0.168465 0.856957 -0.355316
upperback 0.671505 1.12666 0.982915
thorax 0.566017 0.553472 1.20837
lowerneck -10.5716 -3.59447 -12.6933
upperneck 21.4347 -9.37088 20.5774
head 10.0951 -4.2061 8.36789
rclavicle 1.41883e-014 1.70955e-014
rhumerus -84.6229 32.6394 -116.248
rradius 85.5474
rwrist 29.4747
rhand -46.0757 0.057939
rfingers 7.12502
rthumb -18.8185 -29.0518
lclavicle 1.41883e-014 1.70955e-014
lhumerus -84.1792 -40.5785 118.516
lradius 75.1527
lwrist -31.1134
lhand -46.5404 -1.4807
lfingers 7.12502
lthumb -19.2654 27.585
rfemur 163.986 67.033 -151.997
rtibia 38.8496
rfoot -94.7899 -48.7524
rtoes -14.9727
lfemur -26.3669 4.89916 -7.78142
ltibia 57.5749
lfoot -16.2708 6.44725
ltoes -13.8655
160
root 11.3557 17.935 -0.785014 -180.044 -5.45676 -174.734
lowerback 0.336161 0.96664 -0.618634
upperback 0.725343 1.27393 0.909032
thorax 0.519634 0.626254 1.2781
lowerneck -10.359 -3.72032 -12.8149
upperneck 21.0783 -9.67539 21.1508
head 10.0312 -4.34426 8.55959
rclavicle 1.98785e-016 -9.54166e-015
rhumerus -84.7684 32.7646 -116.495
rradius 85.3151
rwrist 29.2062
rhand -46.36 -0.25317
rfingers 7.12502
rthumb -19.0919 -29.3361
lclavicle 1.98785e-016 -9.54166e-015
lhumerus -84.1891 -40.9337 118.516
lradius 75.5219
lwrist -31.2545
lhand -46.2455 -1.3971
lfingers 7.12502
lthumb -18.9818 27.6967
rfemur 162.869 69.3499 -152.499
rtibia 38.9838
rfoot -97.2099 -48.0925
rtoes -14.125
lfemur -27.7548 4.23073 -7.56289
ltibia 56.0516
lfoot -16.9591 6.40278
ltoes -13.6215
161
root 11.3804 17.9215 -0.918303 -180.118 -5.60496 -174.457
lowerback 0.407723 1.02531 -0.887573
upperback 0.797623 1.35109 0.909969
thorax 0.545279 0.662625 1.42923
lowerneck -10.3737 -3.77074 -12.8523
upperneck 20.9385 -9.86352 21.5788
head 10.0546 -4.41674 8.70459
rclavicle 1.06847e-015 9.54166e-015
rhumerus -84.7884 32.8284 -116.643
rradius 84.929
rwrist 29.219
rhand -46.7071 -0.347706
rfingers 7.12502
rthumb -19.4257 -29.3974
lclavicle 1.06847e-015 9.54166e-015
lhumerus -84.0763 -41.1217 118.475
lradius 75.8694
lwrist -30.9554
lhand -45.908 -1.64092
lfingers 7.12502
lthumb -18.6572 27.4844
rfemur 161.485 71.8668 -153.204
rtibia 39.1101
rfoot -100.012 -47.5283
rtoes -12.7245
lfemur -29.0434 3.53457 -7.27158
ltibia 54.4533
lfoot -17.5438 6.1733
ltoes -13.1045
